<?xml version="1.0" encoding="utf-8"?>
<!-- Generator: Adobe Illustrator 16.0.0, SVG Export Plug-In . SVG Version: 6.00 Build 0)  -->
<!DOCTYPE svg PUBLIC "-//W3C//DTD SVG 1.1//EN" "http://www.w3.org/Graphics/SVG/1.1/DTD/svg11.dtd">
<svg version="1.1" id="Layer_1" xmlns="http://www.w3.org/2000/svg" xmlns:xlink="http://www.w3.org/1999/xlink" x="0px" y="0px"
	 width="1125px" height="732px" viewBox="0 0 1125 732" enable-background="new 0 0 1125 732" xml:space="preserve">
<g transform="translate(300,300)" opacity="0.2">
	<linearGradient id="SVGID_1_" gradientUnits="userSpaceOnUse" x1="134.4224" y1="65.2153" x2="771.0195" y2="65.2153">
		<stop  offset="0" style="stop-color:#FF7B7B;stop-opacity:0.5"/>
		<stop  offset="1" style="stop-color:#F95858"/>
	</linearGradient>
	<path fill="url(#SVGID_1_)" d="M680.029-130.072c57.651,84.527,101.354,168.031,88.838,244.97
		c-12.722,76.938-81.453,147.311-177.062,213.171c-95.608,65.653-218.094,126.59-309.188,93.762
		c-90.889-33.032-150.389-159.826-148.133-267.336c2.052-107.302,65.86-195.318,133.565-282.311
		c67.705-86.992,139.31-172.752,210.913-172.752C550.568-300.569,622.171-214.809,680.029-130.072z"/>
</g>
<g>
	<ellipse opacity="0.35" fill="#074399" cx="553.949" cy="694.197" rx="355.727" ry="28.479"/>
	<g>
		<g>
			<g>
				<linearGradient id="SVGID_2_" gradientUnits="userSpaceOnUse" x1="762.6133" y1="602.8389" x2="746.0438" y2="400.8985">
					<stop  offset="0" style="stop-color:#FCAF00"/>
					<stop  offset="1" style="stop-color:#F9DB00"/>
				</linearGradient>
				<path fill="url(#SVGID_2_)" d="M699.067,549.888c-2.073-6.045-4.169-12.502-2.645-18.707c1.524-6.206,8.267-11.558,14.191-9.167
					c4.371,1.764,6.39,6.645,9.039,10.541c2.646,3.896,7.98,7.271,11.803,4.518c4.52-3.253,1.495-10.283-1.548-14.946
					c-7.716-11.827-13.434-24.956-16.839-38.664c-1.5-6.032-2.489-12.687,0.297-18.244c2.787-5.558,10.811-8.736,15.468-4.618
					c4.039,3.574,4.492,11.207,9.777,12.288c3.362,0.688,6.613-2.211,7.578-5.505c0.964-3.295,0.256-6.816-0.45-10.178
					c-2.719-12.932-5.239-26.753-0.416-39.056c4.821-12.306,20.014-21.457,31.597-15.095c8.504,4.67,11.533,17.086,6.135,25.149
					c5.657-5.509,16.049-3.172,20.537,3.321c4.487,6.491,3.958,15.416,0.797,22.649s-8.572,13.194-13.707,19.19
					c-2.887,3.376-5.83,7.059-6.399,11.465c-0.569,4.405,2.326,9.551,6.767,9.701c2.423,0.085,4.633-1.268,6.98-1.872
					c6.574-1.689,13.544,3,16.328,9.189c2.787,6.191,2.223,13.379,0.677,19.989c-3.581,15.318-12.271,29.401-24.354,39.474
					c-2.458,2.045-5.127,4.027-6.595,6.869c-1.468,2.839-1.254,6.869,1.409,8.642c1.788,1.19,4.198,1.09,6.009,2.247
					c4.8,3.065,1.354,10.46-2.402,14.739l0,0c-10.941,12.464-21.88,24.925-32.818,37.389c-7.923,9.024-18.864,27.114-26.169,9.246
					C718.102,611.062,709.496,579.879,699.067,549.888z"/>
			</g>
			<linearGradient id="SVGID_3_" gradientUnits="userSpaceOnUse" x1="713.3271" y1="539.9941" x2="783.4199" y2="539.9941">
				<stop  offset="0" style="stop-color:#FCAF00"/>
				<stop  offset="1" style="stop-color:#E58500"/>
			</linearGradient>
			<path fill="url(#SVGID_3_)" d="M733.436,659.313c1.877-8.606,3.648-17.132,5.27-25.343c0.322-1.628,0.631-3.258,0.941-4.89
				l0.416-2.181c0,0-16.358-53.994-26.705-79.997c-0.071-0.181-0.016-0.313,0.165-0.396c0.116-0.056,0.255-0.062,0.361-0.019
				c0.091,0.036,0.154,0.108,0.198,0.213c9.914,24.92,18.6,50.756,25.807,76.791l0.59,2.342l0.248-2.375
				c6.089-32.246,11.034-65.166,14.693-97.839l0.021-0.181l-0.115-0.141l-23.142-35.947c-0.062-0.098-0.08-0.189-0.052-0.278
				c0.031-0.11,0.128-0.211,0.246-0.268c0.124-0.056,0.297-0.08,0.426,0.123l22.76,35.364l0.13-1.201
				c3.733-33.916,6.182-68.284,7.276-102.149c0.007-0.213,0.138-0.317,0.244-0.365c0.14-0.066,0.315-0.064,0.415,0.001
				c0.026,0.018,0.095,0.063,0.089,0.228c-0.491,15.245-1.253,30.675-2.264,45.859l0.796,0.247
				c5.275-8.847,11.668-16.938,19.007-24.047c0.038-0.038,0.079-0.066,0.119-0.084c0.191-0.089,0.421,0.022,0.529,0.179
				c0.113,0.168,0.037,0.28-0.049,0.361c-8.153,7.902-15.085,16.911-20.597,26.78l-0.048,0.084l-0.007,0.097
				c-0.237,3.429-0.487,6.86-0.749,10.289c-3.185,41.185-8.42,82.88-15.552,123.935l-1.27,5.637l2.094-5.413
				c9.83-26.026,22.255-51.175,36.927-74.744c0.048-0.075,0.103-0.127,0.172-0.159c0.187-0.086,0.419-0.005,0.529,0.121
				c0.083,0.093,0.083,0.185,0.005,0.311c-16.101,25.866-29.461,53.53-39.701,82.221c-0.019,0.055-6.118,31.404-9.505,46.98
				L733.436,659.313z"/>
		</g>
		<g>
			<g>
				<linearGradient id="SVGID_4_" gradientUnits="userSpaceOnUse" x1="734.6035" y1="651.2764" x2="969.6837" y2="399.6271">
					<stop  offset="0.0364" style="stop-color:#48CBFF"/>
					<stop  offset="1" style="stop-color:#76FEFF"/>
				</linearGradient>
				<path fill="url(#SVGID_4_)" d="M738.588,555.096c2.155-7.223,4.572-14.855,10.289-19.766c5.715-4.908,15.854-5.423,19.903,0.936
					c2.983,4.687,1.575,10.753,1.443,16.308c-0.13,5.556,2.673,12.45,8.23,12.43c6.567-0.022,8.483-8.842,8.761-15.403
					c0.705-16.641,4.22-33.156,10.348-48.645c2.697-6.817,6.31-13.881,12.793-17.302c6.485-3.423,16.366-0.972,18.009,6.172
					c1.425,6.199-3.372,13.833,0.958,18.493c2.755,2.965,7.862,2.412,11.046-0.087c3.185-2.498,4.918-6.366,6.543-10.074
					c6.259-14.274,13.316-29.262,26.378-37.763c13.063-8.504,33.913-6.867,40.669,7.179c4.956,10.312-0.647,24.3-11.355,28.337
					c9.202-1.405,17.573,7.958,17.427,17.267c-0.144,9.306-6.769,17.506-14.761,22.279s-17.273,6.784-26.31,9.021
					c-5.085,1.257-10.433,2.775-14.002,6.611c-3.566,3.836-4.313,10.761-0.157,13.949c2.265,1.74,5.316,1.959,7.982,2.99
					c7.469,2.885,10.941,12.162,9.367,20.013c-1.569,7.849-7.037,14.356-13.053,19.643c-13.939,12.244-31.929,19.8-50.432,21.178
					c-3.761,0.281-7.681,0.351-11.037,2.071c-3.355,1.72-5.911,5.733-4.572,9.258c0.901,2.369,3.28,3.926,4.228,6.275
					c2.503,6.232-5.875,10.967-12.413,12.498l0,0c-19.043,4.458-38.083,8.918-57.123,13.375
					c-13.788,3.23-36.688,13.086-31.449-9.064C714.916,626.842,728.035,591.021,738.588,555.096z"/>
			</g>
			<path opacity="0.56" fill="#268F91" d="M696.551,683.654c7.701-6.973,15.245-13.938,22.428-20.705
				c1.427-1.341,2.841-2.692,4.257-4.046l1.895-1.809c0,0,21.319-63.024,29.219-95.068c0.054-0.222,0.199-0.311,0.429-0.268
				c0.148,0.03,0.289,0.116,0.359,0.23c0.062,0.099,0.075,0.209,0.043,0.342c-7.568,30.709-16.948,61.454-27.882,91.378
				l-1.038,2.649l1.865-2.109c27.951-26.767,55.262-54.966,81.177-83.81l0.142-0.156l-0.014-0.212l2.439-50.359
				c0.009-0.138,0.052-0.237,0.14-0.303c0.106-0.086,0.268-0.118,0.42-0.088c0.155,0.029,0.339,0.126,0.325,0.409l-2.408,49.535
				l0.954-1.063c26.831-29.983,52.74-61.283,77.009-93.027c0.153-0.201,0.35-0.213,0.485-0.186c0.181,0.035,0.348,0.156,0.395,0.289
				c0.015,0.031,0.051,0.121-0.068,0.276c-10.925,14.292-22.233,28.575-33.611,42.451l0.594,0.784
				c11.127-4.874,22.809-8.253,34.723-10.044c0.063-0.011,0.122-0.011,0.175,0.002c0.241,0.045,0.389,0.311,0.384,0.532
				c-0.008,0.24-0.161,0.295-0.294,0.315c-13.242,1.991-26.071,5.884-38.125,11.577l-0.103,0.045l-0.073,0.09
				c-2.579,3.127-5.169,6.249-7.772,9.358c-31.291,37.335-64.897,73.756-99.888,108.259l-5.082,4.539l5.72-3.758
				c27.274-18.235,56.437-33.849,86.677-46.405c0.096-0.041,0.185-0.051,0.271-0.035c0.238,0.046,0.407,0.283,0.428,0.48
				c0.014,0.145-0.048,0.233-0.21,0.3c-33.185,13.782-64.967,31.169-94.464,51.678c-0.055,0.039-27.399,25.941-41.328,38.563
				L696.551,683.654z"/>
		</g>
	</g>
	<g>
		
			<linearGradient id="SVGID_5_" gradientUnits="userSpaceOnUse" x1="763.9141" y1="227.2002" x2="722.1652" y2="166.6835" gradientTransform="matrix(0.8921 0.4519 -0.4519 0.8921 202.0962 -319.6621)">
			<stop  offset="0" style="stop-color:#FCAF00"/>
			<stop  offset="1" style="stop-color:#E58500"/>
		</linearGradient>
		<polygon fill="url(#SVGID_5_)" points="802.274,237.109 725.394,198.164 750.06,149.473 826.938,188.417 		"/>
		
			<linearGradient id="SVGID_6_" gradientUnits="userSpaceOnUse" x1="774.7539" y1="233.0615" x2="721.8973" y2="173.3106" gradientTransform="matrix(0.8921 0.4519 -0.4519 0.8921 202.0962 -319.6621)">
			<stop  offset="0" style="stop-color:#FCAF00"/>
			<stop  offset="1" style="stop-color:#F9DB00"/>
		</linearGradient>
		<polygon fill="url(#SVGID_6_)" points="750.06,149.473 775.428,195.172 826.938,188.417 802.274,237.109 725.394,198.164 		"/>
	</g>
	<g>
		<g>
			<linearGradient id="SVGID_7_" gradientUnits="userSpaceOnUse" x1="250.6821" y1="513.25" x2="293.3845" y2="513.25">
				<stop  offset="0.0364" style="stop-color:#48CBFF"/>
				<stop  offset="1" style="stop-color:#76FEFF"/>
			</linearGradient>
			<path fill="url(#SVGID_7_)" d="M289.107,619.979h3.724c-1.85-12.399-8.236-32.004-16.055-60.667
				c-11.496-42.156,26.826-62.467,13.415-106.155c-13.415-43.689-34.491-51.735-31.426-44.07c3.066,7.663,0.767,55.95-6.515,94.658
				c-7.281,38.706,12.265,47.137,28.742,91.21C285.344,606.592,287.813,614.54,289.107,619.979z"/>
			<linearGradient id="SVGID_8_" gradientUnits="userSpaceOnUse" x1="291.2207" y1="528.0635" x2="360.4287" y2="528.0635">
				<stop  offset="0.0364" style="stop-color:#48CBFF"/>
				<stop  offset="1" style="stop-color:#76FEFF"/>
			</linearGradient>
			<path fill="url(#SVGID_8_)" d="M301.538,619.979c-2.199-4.567-6.229-15.106-6.229-31.063c0-21.913,12.703-21.278,44.465-47.641
				c31.763-26.362,18.104-79.72,15.563-89.885c-2.542-10.163-11.117-15.244-11.117-15.244
				c0.318,11.116-11.752,51.771-39.065,102.269c-23.443,43.341-11.101,73.793-7.128,81.563H301.538z"/>
			
				<linearGradient id="SVGID_9_" gradientUnits="userSpaceOnUse" x1="192.1372" y1="513.6113" x2="262.2817" y2="513.6113" gradientTransform="matrix(0.9923 -0.1238 0.1238 0.9923 -49.6875 72.5229)">
				<stop  offset="0.0364" style="stop-color:#48CBFF"/>
				<stop  offset="1" style="stop-color:#76FEFF"/>
			</linearGradient>
			<path fill="url(#SVGID_9_)" d="M280.413,619.979h2.514c-0.601-4.794-3.604-12.42-13.03-24.01
				c-23.162-28.479-29.14-37.361-36.211-68.04c-7.071-30.676-29.865-40.81-29.865-40.81s-12.535,36.661,6.589,67.015
				c19.123,30.354,43.354,34.82,56.438,45.755C278.232,609.403,280.326,615.201,280.413,619.979z"/>
			<linearGradient id="SVGID_10_" gradientUnits="userSpaceOnUse" x1="299.9585" y1="575.9512" x2="368.5859" y2="575.9512">
				<stop  offset="0.0364" style="stop-color:#48CBFF"/>
				<stop  offset="1" style="stop-color:#76FEFF"/>
			</linearGradient>
			<path fill="url(#SVGID_10_)" d="M362.942,531.922c-1.184,3.551-28.406,38.169-51.188,55.036
				c-17.092,12.653-11.661,26.762-7.882,33.021h2.478c-3.07-5.615-3.568-11.22-2.979-13.888
				c2.348-10.613,24.328-2.174,47.737-15.583C381.583,573.053,362.942,531.922,362.942,531.922z"/>
		</g>
		<path opacity="0.41" fill="#208B8E" d="M290.19,453.157c-10.77-35.076-26.47-47.168-30.658-46.607
			c7.681,10.673,23.77,44.763,22.639,67.167c-1.248,24.731-17.736,43.219-11.49,76.191c6.246,32.977,22.149,70.071,22.149,70.071
			c-1.85-12.399-8.236-32.004-16.055-60.667C265.28,517.156,303.602,496.846,290.19,453.157z"/>
		<path opacity="0.41" fill="#208B8E" d="M345.434,515.811c-13.487,20.982-18.546,26.854-34.535,40.343
			c-15.989,13.49-24.981,29.479-11.741,58.955c0.37,0.824,0.78,1.561,1.218,2.24c-2.215-5.426-5.068-14.999-5.068-28.432
			c0-21.913,12.703-21.278,44.465-47.641c31.763-26.362,18.104-79.72,15.563-89.885c-2.542-10.163-11.117-15.244-11.117-15.244
			S358.924,494.826,345.434,515.811z"/>
		<linearGradient id="SVGID_11_" gradientUnits="userSpaceOnUse" x1="255.6235" y1="651.3311" x2="330.2051" y2="651.3311">
			<stop  offset="0" style="stop-color:#FCAF00"/>
			<stop  offset="1" style="stop-color:#E58500"/>
		</linearGradient>
		<polygon fill="url(#SVGID_11_)" points="255.624,616.358 263.077,686.304 322.75,686.304 330.205,616.358 		"/>
		<polygon opacity="0.33" fill="#E58500" points="313.217,616.358 305.763,686.304 322.75,686.304 330.205,616.358 		"/>
	</g>
	<g>
		
			<linearGradient id="SVGID_12_" gradientUnits="userSpaceOnUse" x1="745.8584" y1="210.5669" x2="816.4268" y2="210.5669" gradientTransform="matrix(0.876 -0.4823 0.4823 0.876 -105 312.2717)">
			<stop  offset="0" style="stop-color:#FF7B7B"/>
			<stop  offset="1" style="stop-color:#F95858"/>
		</linearGradient>
		<circle fill="url(#SVGID_12_)" cx="680.836" cy="119.983" r="35.284"/>
		<path fill="#FFFFFF" d="M690.92,100.899c-6.243-1.934-12.953,2.005-14.771,8.282l-0.151,0.522l-0.901-0.27
			c-3.102-0.899-6.256-0.452-8.876,0.991c-2.622,1.443-4.687,3.869-5.585,6.971c-1.794,6.188,1.774,12.669,7.962,14.462l0.903,0.252
			l19.399,5.632c1.664,0.483,3.406-0.475,3.888-2.14l5.627-19.409l0.26-0.894c0.898-3.103,0.45-6.257-0.991-8.878
			C696.271,103.859,693.922,101.829,690.92,100.899z"/>
	</g>
	<g>
		<linearGradient id="SVGID_13_" gradientUnits="userSpaceOnUse" x1="679.5527" y1="276.0396" x2="563.5652" y2="178.1751">
			<stop  offset="0.0364" style="stop-color:#48CBFF"/>
			<stop  offset="1" style="stop-color:#76FEFF"/>
		</linearGradient>
		<path fill="url(#SVGID_13_)" d="M665.73,190.696h-94.954c-5.952,0-10.781,4.827-10.781,10.781v45.687
			c0,5.953,4.829,10.779,10.781,10.779h30.203c2.521,0,4.864,1.309,6.187,3.458l8.828,9.325c1.044,1.698,3.504,1.717,4.576,0.035
			l9.208-9.452c1.335-2.096,3.646-3.365,6.129-3.365h29.823c5.955,0,10.781-4.827,10.781-10.779v-45.687
			C676.512,195.522,671.686,190.696,665.73,190.696z"/>
		<linearGradient id="SVGID_14_" gradientUnits="userSpaceOnUse" x1="584.9883" y1="207.6738" x2="655.5488" y2="207.6738">
			<stop  offset="0" style="stop-color:#19487F"/>
			<stop  offset="1" style="stop-color:#0E274C"/>
		</linearGradient>
		<path fill="url(#SVGID_14_)" d="M586.687,209.373c-0.937,0-1.698-0.762-1.698-1.698c0-0.938,0.762-1.7,1.698-1.7h67.163
			c0.938,0,1.699,0.762,1.699,1.7c0,0.936-0.761,1.698-1.699,1.698H586.687z"/>
		<linearGradient id="SVGID_15_" gradientUnits="userSpaceOnUse" x1="584.9883" y1="225.4844" x2="655.5488" y2="225.4844">
			<stop  offset="0" style="stop-color:#19487F"/>
			<stop  offset="1" style="stop-color:#0E274C"/>
		</linearGradient>
		<path fill="url(#SVGID_15_)" d="M586.687,227.183c-0.937,0-1.698-0.762-1.698-1.699c0-0.937,0.762-1.698,1.698-1.698h67.163
			c0.938,0,1.699,0.761,1.699,1.698c0,0.937-0.761,1.699-1.699,1.699H586.687z"/>
		<linearGradient id="SVGID_16_" gradientUnits="userSpaceOnUse" x1="584.9883" y1="242.7959" x2="621.6738" y2="242.7959">
			<stop  offset="0" style="stop-color:#19487F"/>
			<stop  offset="1" style="stop-color:#0E274C"/>
		</linearGradient>
		<path fill="url(#SVGID_16_)" d="M586.687,244.495c-0.937,0-1.698-0.762-1.698-1.7c0-0.936,0.762-1.698,1.698-1.698h33.29
			c0.934,0,1.697,0.762,1.697,1.698c0,0.938-0.764,1.7-1.697,1.7H586.687z"/>
	</g>
	<g>
		<linearGradient id="SVGID_17_" gradientUnits="userSpaceOnUse" x1="676.7578" y1="322.1309" x2="783.8685" y2="322.1309">
			<stop  offset="0" style="stop-color:#FF7B7B"/>
			<stop  offset="1" style="stop-color:#F95858"/>
		</linearGradient>
		<path fill="url(#SVGID_17_)" d="M754.229,310.395v-6.641c0-6.84-5.597-12.436-12.437-12.436h-52.6
			c-6.84,0-12.436,5.596-12.436,12.436v36.754c0,6.839,5.596,12.436,12.436,12.436h52.6c6.84,0,12.437-5.596,12.437-12.436v-6.642
			l23.425,8.919v-41.309L754.229,310.395z"/>
		<linearGradient id="SVGID_18_" gradientUnits="userSpaceOnUse" x1="704.1494" y1="321.9482" x2="727.4857" y2="321.9482">
			<stop  offset="0" style="stop-color:#F4F4F4"/>
			<stop  offset="0.6269" style="stop-color:#F9F9F9"/>
			<stop  offset="1" style="stop-color:#FFFFFF"/>
		</linearGradient>
		<path fill="url(#SVGID_18_)" d="M725.392,323.356l-18.565,12.753c-1.133,0.78-2.677-0.033-2.677-1.409v-25.504
			c0-1.376,1.544-2.188,2.677-1.41l18.565,12.753C726.379,321.218,726.379,322.678,725.392,323.356z"/>
	</g>
	<g>
		
			<linearGradient id="SVGID_19_" gradientUnits="userSpaceOnUse" x1="895.6484" y1="416.4668" x2="804.8336" y2="325.6519" gradientTransform="matrix(0.927 -0.3751 0.3751 0.927 -76.6094 331.658)">
			<stop  offset="0.0364" style="stop-color:#48CBFF"/>
			<stop  offset="1" style="stop-color:#76FEFF"/>
		</linearGradient>
		<path fill="url(#SVGID_19_)" d="M890.021,332.496l-2.388,0.966c-2.054,0.831-4.393,0.253-5.86-1.407
			c-1.403-1.587-2.922-3.052-4.538-4.379c-1.804-1.481-2.463-3.938-1.551-6.088l0.94-2.22c1.269-2.992,0.032-6.051-2.618-7.174
			l-5.78-2.45c-2.649-1.124-5.709,0.114-6.833,2.765l-1.347,3.179c-0.878,2.072-2.983,3.309-5.226,3.148
			c-1.894-0.135-3.805-0.137-5.723,0.004c-2.282,0.17-4.419-1.098-5.276-3.219l-1.151-2.849c-1.251-3.089-4.289-4.375-6.957-3.295
			l-5.819,2.354c-2.668,1.08-3.955,4.118-2.876,6.786l1.321,3.262c0.857,2.121,0.205,4.524-1.553,5.988
			c-1.477,1.23-2.848,2.562-4.115,3.974c-1.499,1.677-3.867,2.254-5.938,1.375l-2.778-1.176c-3.058-1.297-6.114-0.058-7.239,2.592
			l-2.448,5.78c-1.124,2.65,0.114,5.709,2.764,6.833l2.559,1.084c2.15,0.912,3.391,3.135,3.122,5.455
			c-0.237,2.078-0.311,4.183-0.214,6.3c0.1,2.215-1.18,4.257-3.235,5.089l-2.387,0.965c-2.668,1.079-3.955,4.118-2.876,6.787
			l2.354,5.819c1.082,2.667,4.12,3.954,6.788,2.875l1.529-0.619c2.173-0.879,4.645-0.176,6.081,1.678
			c1.468,1.902,3.095,3.644,4.853,5.222c1.658,1.488,2.204,3.847,1.332,5.898l-0.47,1.113c-1.198,2.827,0.038,5.889,2.688,7.01
			l5.781,2.451c2.65,1.123,5.709-0.116,6.834-2.766l0.275-0.655c0.907-2.139,3.114-3.396,5.421-3.121
			c2.6,0.31,5.242,0.361,7.896,0.141c2.172-0.178,4.201,1.075,5.019,3.097l0.24,0.594c1.121,2.769,4.159,4.056,6.826,2.977
			l5.821-2.355c2.668-1.079,3.955-4.115,2.876-6.786l-0.227-0.556c-0.849-2.1-0.234-4.501,1.514-5.946
			c2.024-1.673,3.858-3.529,5.488-5.534c1.446-1.78,3.879-2.405,5.994-1.51l0.597,0.253c2.752,1.166,5.811-0.072,6.936-2.72
			l2.448-5.782c1.124-2.65-0.114-5.708-2.764-6.831l-1.289-0.547c-2.051-0.869-3.304-2.945-3.146-5.168
			c0.167-2.355,0.124-4.74-0.145-7.127c-0.257-2.331,1.029-4.553,3.205-5.434l1.529-0.618c2.668-1.08,3.955-4.118,2.876-6.788
			l-2.354-5.819C895.728,332.703,892.689,331.415,890.021,332.496z M857.583,371.885c-8.191,3.315-17.517-0.638-20.828-8.827
			c-3.315-8.189,0.638-17.514,8.826-20.828c8.19-3.313,17.515,0.639,20.828,8.828C869.724,359.248,865.771,368.572,857.583,371.885z
			"/>
		
			<linearGradient id="SVGID_20_" gradientUnits="userSpaceOnUse" x1="920.8613" y1="319.9878" x2="880.9215" y2="261.2" gradientTransform="matrix(0.9058 -0.4237 0.4237 0.9058 -58.1777 382.1572)">
			<stop  offset="0" style="stop-color:#F4F4F4"/>
			<stop  offset="0.6269" style="stop-color:#F9F9F9"/>
			<stop  offset="1" style="stop-color:#FFFFFF"/>
		</linearGradient>
		<path fill="url(#SVGID_20_)" d="M900.743,244.007l-1.509,0.705c-1.297,0.607-2.826,0.314-3.83-0.707
			c-0.96-0.977-1.988-1.869-3.076-2.67c-1.217-0.894-1.727-2.458-1.209-3.876l0.529-1.464c0.715-1.975-0.187-3.907-1.936-4.541
			l-3.813-1.383c-1.749-0.634-3.681,0.269-4.316,2.018l-0.762,2.098c-0.493,1.366-1.81,2.237-3.264,2.209
			c-1.226-0.022-2.459,0.042-3.691,0.199c-1.466,0.188-2.888-0.556-3.514-1.896l-0.842-1.798c-0.914-1.952-2.916-2.678-4.602-1.89
			l-3.676,1.72c-1.686,0.788-2.412,2.792-1.623,4.477l0.962,2.06c0.627,1.339,0.287,2.912-0.795,3.917
			c-0.91,0.845-1.751,1.75-2.52,2.706c-0.91,1.132-2.418,1.586-3.786,1.09l-1.834-0.664c-2.016-0.733-3.947,0.171-4.581,1.92
			l-1.382,3.814c-0.636,1.748,0.268,3.679,2.016,4.314l1.689,0.612c1.418,0.514,2.295,1.908,2.201,3.413
			c-0.082,1.349-0.057,2.711,0.078,4.074c0.14,1.425-0.615,2.786-1.913,3.394l-1.506,0.705c-1.688,0.788-2.415,2.792-1.626,4.477
			l1.719,3.675c0.789,1.686,2.794,2.413,4.479,1.625l0.965-0.452c1.374-0.643,2.992-0.274,3.982,0.875
			c1.012,1.176,2.121,2.246,3.311,3.204c1.122,0.903,1.554,2.406,1.063,3.759l-0.266,0.735c-0.677,1.867,0.227,3.799,1.976,4.433
			l3.813,1.383c1.748,0.633,3.68-0.27,4.313-2.019l0.157-0.433c0.513-1.411,1.894-2.296,3.391-2.199
			c1.687,0.11,3.395,0.053,5.1-0.179c1.397-0.189,2.748,0.55,3.348,1.826l0.173,0.375c0.818,1.747,2.823,2.475,4.509,1.688
			l3.675-1.719c1.686-0.789,2.409-2.793,1.624-4.479l-0.165-0.351c-0.62-1.327-0.307-2.897,0.772-3.889
			c1.248-1.148,2.371-2.41,3.351-3.76c0.874-1.2,2.423-1.685,3.818-1.179l0.394,0.143c1.815,0.657,3.749-0.246,4.382-1.995
			l1.383-3.813c0.637-1.749-0.27-3.681-2.018-4.315l-0.848-0.308c-1.356-0.491-2.234-1.788-2.209-3.228
			c0.027-1.526-0.083-3.063-0.336-4.595c-0.247-1.495,0.508-2.974,1.881-3.615l0.965-0.453c1.685-0.788,2.411-2.792,1.623-4.477
			l-1.717-3.675C904.432,243.947,902.427,243.22,900.743,244.007z M881.156,270.537c-5.172,2.418-11.323,0.188-13.741-4.983
			c-2.422-5.171-0.189-11.325,4.983-13.744c5.17-2.418,11.322-0.186,13.74,4.985C888.559,261.966,886.327,268.119,881.156,270.537z"
			/>
	</g>
	<g>
		
			<linearGradient id="SVGID_21_" gradientUnits="userSpaceOnUse" x1="578.9902" y1="128.3638" x2="529.0302" y2="78.4037" gradientTransform="matrix(0.9248 -0.3804 0.3804 0.9248 -53.0254 275.3857)">
			<stop  offset="0" style="stop-color:#FCAF00"/>
			<stop  offset="1" style="stop-color:#F9DB00"/>
		</linearGradient>
		<path fill="url(#SVGID_21_)" d="M478.556,120.132c-21.157,8.703-31.255,32.909-22.552,54.066
			c8.703,21.157,32.91,31.253,54.065,22.551c21.157-8.702,31.254-32.909,22.55-54.066
			C523.918,121.525,499.713,111.429,478.556,120.132z M506.39,187.805c-16.216,6.67-34.772-1.069-41.442-17.286
			c-6.671-16.218,1.07-34.772,17.287-41.444c16.217-6.67,34.771,1.069,41.443,17.287
			C530.348,162.579,522.609,181.134,506.39,187.805z"/>
		
			<linearGradient id="SVGID_22_" gradientUnits="userSpaceOnUse" x1="578.6074" y1="128.7441" x2="528.6489" y2="78.7856" gradientTransform="matrix(0.9248 -0.3804 0.3804 0.9248 -53.0254 275.3857)">
			<stop  offset="0" style="stop-color:#FCAF00"/>
			<stop  offset="1" style="stop-color:#F9DB00"/>
		</linearGradient>
		<path fill="url(#SVGID_22_)" d="M498.762,176.016c-3.536,1.27-7.198,1.869-10.991,1.798l-3.248-7.894
			c2.224,0.179,4.542,0.137,6.956-0.123c2.415-0.26,4.435-0.726,6.07-1.398c1.347-0.554,2.266-1.123,2.76-1.706
			c0.491-0.582,0.583-1.253,0.27-2.014c-0.215-0.523-0.625-0.875-1.228-1.053c-0.599-0.179-1.523-0.281-2.766-0.308
			c-1.245-0.026-2.895,0.004-4.952,0.09c-2.32,0.083-4.288-0.084-5.907-0.503c-1.616-0.418-2.945-1.086-3.98-2.003
			c-1.036-0.918-1.904-2.233-2.608-3.944c-1.077-2.616-1.077-5.006-0.002-7.171c1.072-2.166,3.219-4.113,6.435-5.844l-1.339-3.258
			l4.921-2.024l1.321,3.209c3.225-1.124,6.721-1.653,10.491-1.591l-0.041,7.939c-3.926-0.127-7.222,0.357-9.883,1.452
			c-1.27,0.522-2.096,1.043-2.485,1.564c-0.386,0.521-0.458,1.083-0.21,1.685c0.214,0.522,0.578,0.879,1.093,1.065
			c0.512,0.189,1.314,0.303,2.404,0.345c1.093,0.041,2.569,0.003,4.431-0.113c3.795-0.188,6.723,0.168,8.781,1.072
			c2.059,0.905,3.575,2.538,4.546,4.898c1.096,2.664,1.142,5.175,0.138,7.534c-1.004,2.358-3.043,4.401-6.11,6.126l1.886,4.59
			l-4.922,2.024L498.762,176.016z"/>
	</g>
	<g>
		
			<linearGradient id="SVGID_23_" gradientUnits="userSpaceOnUse" x1="548.064" y1="279.3247" x2="498.1033" y2="229.364" gradientTransform="matrix(0.79 0.6131 -0.6131 0.79 321.6494 -407.3672)">
			<stop  offset="0" style="stop-color:#FCAF00"/>
			<stop  offset="1" style="stop-color:#F9DB00"/>
		</linearGradient>
		<path fill="url(#SVGID_23_)" d="M603.754,76.879c-18.071-14.026-44.093-10.745-58.117,7.327
			c-14.027,18.073-10.746,44.094,7.327,58.12c18.073,14.026,44.093,10.745,58.12-7.327
			C625.107,116.926,621.827,90.906,603.754,76.879z M558.892,134.688c-13.854-10.751-16.368-30.698-5.617-44.553
			c10.751-13.853,30.698-16.368,44.552-5.616c13.854,10.752,16.368,30.697,5.617,44.552
			C592.692,142.924,572.744,145.438,558.892,134.688z"/>
		
			<linearGradient id="SVGID_24_" gradientUnits="userSpaceOnUse" x1="547.6816" y1="279.7041" x2="497.7231" y2="229.7455" gradientTransform="matrix(0.79 0.6131 -0.6131 0.79 321.6494 -407.3672)">
			<stop  offset="0" style="stop-color:#FCAF00"/>
			<stop  offset="1" style="stop-color:#F9DB00"/>
		</linearGradient>
		<path fill="url(#SVGID_24_)" d="M565.324,122.206c-2.86-2.437-5.203-5.317-7.027-8.642l5.235-6.744
			c0.947,2.018,2.14,4.009,3.566,5.973c1.423,1.965,2.834,3.487,4.23,4.569c1.149,0.893,2.102,1.408,2.852,1.546
			c0.748,0.138,1.377-0.118,1.881-0.769c0.348-0.445,0.448-0.975,0.305-1.586c-0.146-0.61-0.515-1.461-1.111-2.554
			c-0.595-1.091-1.443-2.508-2.541-4.25c-1.225-1.97-2.059-3.763-2.499-5.375c-0.442-1.611-0.525-3.094-0.243-4.449
			c0.281-1.354,0.99-2.763,2.124-4.226c1.734-2.234,3.809-3.424,6.219-3.568c2.415-0.146,5.17,0.748,8.271,2.677l2.161-2.782
			l4.203,3.262l-2.128,2.742c2.581,2.241,4.78,5.01,6.6,8.311l-6.908,3.912c-1.842-3.469-3.9-6.086-6.175-7.851
			c-1.084-0.841-1.95-1.3-2.593-1.376c-0.645-0.078-1.168,0.139-1.567,0.655c-0.346,0.446-0.473,0.938-0.381,1.477
			c0.093,0.539,0.392,1.292,0.898,2.26s1.274,2.23,2.302,3.787c2.05,3.198,3.197,5.916,3.435,8.15
			c0.24,2.237-0.423,4.363-1.988,6.38c-1.765,2.275-3.921,3.564-6.465,3.867c-2.547,0.302-5.333-0.449-8.355-2.254l-3.043,3.919
			l-4.204-3.263L565.324,122.206z"/>
	</g>
	<g>
		<linearGradient id="SVGID_25_" gradientUnits="userSpaceOnUse" x1="536.5244" y1="738.4658" x2="738.4662" y2="512.4467">
			<stop  offset="0" style="stop-color:#FCAF00"/>
			<stop  offset="1" style="stop-color:#E58500"/>
		</linearGradient>
		<rect x="552.657" y="558.973" fill="url(#SVGID_25_)" width="171.277" height="131.174"/>
		<g>
			<g>
				
					<linearGradient id="SVGID_26_" gradientUnits="userSpaceOnUse" x1="656.0225" y1="746.498" x2="709.1465" y2="746.498" gradientTransform="matrix(-0.947 0.3214 0.3214 0.947 1228.6865 -259.626)">
					<stop  offset="0" style="stop-color:#FF7B7B"/>
					<stop  offset="1" style="stop-color:#F95858"/>
				</linearGradient>
				<path fill="url(#SVGID_26_)" d="M800.241,684.363l-4.514-13.306c0,0-3.303-5.779,4.335-5.303
					c7.635,0.476,11.969-4.829,13.741-6.388c1.77-1.56,29.861,3.28,34.229,4.291c0.032,0.007,0.064,0.017,0.097,0.022
					c2.208,0.523,2.307,3.649,0.157,4.378L800.241,684.363z"/>
				
					<linearGradient id="SVGID_27_" gradientUnits="userSpaceOnUse" x1="688.1904" y1="733.6143" x2="707.8311" y2="733.6143" gradientTransform="matrix(-0.947 0.3214 0.3214 0.947 1228.6865 -259.626)">
					<stop  offset="0.0176" style="stop-color:#F4BD6C"/>
					<stop  offset="1" style="stop-color:#FFD49C"/>
				</linearGradient>
				<path fill="url(#SVGID_27_)" d="M795.604,666.875c0.652-0.758,1.969-1.269,4.471-1.114c7.623,0.478,11.949-4.832,13.724-6.392
					l-3.372-2.295l-1.43-5.839L793.259,657C794.014,660.376,794.964,664.366,795.604,666.875z"/>
			</g>
			
				<linearGradient id="SVGID_28_" gradientUnits="userSpaceOnUse" x1="727.1289" y1="667.5313" x2="746.7705" y2="667.5313" gradientTransform="matrix(-1 0 0 1 1436.959 0)">
				<stop  offset="0.0176" style="stop-color:#F4BD6C"/>
				<stop  offset="1" style="stop-color:#FFD49C"/>
			</linearGradient>
			<path fill="url(#SVGID_28_)" d="M690.188,672.039c0.86-0.505,2.272-0.567,4.593,0.384c7.064,2.903,12.868-0.736,15.049-1.642
				l-2.458-3.258l0.523-5.988l-16.756,0.399C690.771,665.375,690.388,669.46,690.188,672.039z"/>
			
				<linearGradient id="SVGID_29_" gradientUnits="userSpaceOnUse" x1="694.958" y1="680.415" x2="748.0869" y2="680.415" gradientTransform="matrix(-1 0 0 1 1436.959 0)">
				<stop  offset="0" style="stop-color:#FF7B7B"/>
				<stop  offset="1" style="stop-color:#F95858"/>
			</linearGradient>
			<path fill="url(#SVGID_29_)" d="M688.961,690.094v-14.051c0,0-1.271-6.535,5.809-3.629c7.077,2.903,12.888-0.728,15.065-1.635
				s27.225,12.705,31.037,15.064c0.027,0.02,0.055,0.035,0.082,0.053c1.925,1.205,1.013,4.197-1.258,4.197H688.961z"/>
			<linearGradient id="SVGID_30_" gradientUnits="userSpaceOnUse" x1="574.9316" y1="424.1572" x2="615.5215" y2="336.0744">
				<stop  offset="0" style="stop-color:#19487F"/>
				<stop  offset="1" style="stop-color:#0E274C"/>
			</linearGradient>
			<path fill="url(#SVGID_30_)" d="M593.264,407.816c-12.524-0.769-24.414-6.399-32.26-16.195
				c-5.391-6.727-8.426-14.956-2.185-22.941c14.271-18.257,3.148-28.33,13.011-37.142c9.864-8.814,16.788-40.08,37.772-27.699
				c0,0,22.66-4.407,25.18,8.813c2.518,13.22,2.099,22.033,0.419,28.328c-1.679,6.296-4.616,9.023,1.26,22.662
				c5.874,13.64,2.099,43.018-18.257,44.277C609.111,408.48,600.266,408.248,593.264,407.816z"/>
			
				<linearGradient id="SVGID_31_" gradientUnits="userSpaceOnUse" x1="616.4219" y1="465.6406" x2="655.2186" y2="381.4492" gradientTransform="matrix(0.9482 -0.3177 0.3177 0.9482 -86.7285 259.2363)">
				<stop  offset="0.0176" style="stop-color:#F4BD6C"/>
				<stop  offset="1" style="stop-color:#FFD49C"/>
			</linearGradient>
			<path fill="url(#SVGID_31_)" d="M682.949,490.408c-0.453-0.01-0.898-0.074-1.338-0.186c-6.402-1.653-57.566-16.396-61.938-25.649
				c-8.876-18.786-22.654-81.965-3.2-87.502c26.546-7.553,23.345,74.913,23.345,74.913l43.927,31.826c0,0,13.779,0.698,14.27,6.992
				L682.949,490.408z"/>
			<linearGradient id="SVGID_32_" gradientUnits="userSpaceOnUse" x1="767.1943" y1="619.8984" x2="695.4299" y2="545.1964">
				<stop  offset="0" style="stop-color:#19487F"/>
				<stop  offset="1" style="stop-color:#0E274C"/>
			</linearGradient>
			<path fill="url(#SVGID_32_)" d="M722.536,498.517c-5.987-1.506-65.881-1.865-88.287-1.964v60.929l79.922,14.437l78.356,89.391
				l18.732-6.561C811.26,654.748,736.272,501.973,722.536,498.517z"/>
			<linearGradient id="SVGID_33_" gradientUnits="userSpaceOnUse" x1="755.3789" y1="630.9492" x2="488.4663" y2="427.8268">
				<stop  offset="0" style="stop-color:#19487F"/>
				<stop  offset="1" style="stop-color:#0E274C"/>
			</linearGradient>
			<path fill="url(#SVGID_33_)" d="M572.166,495.927c26.26,0.28,58.697,0.665,58.697,0.665s54.809,0.087,67.36,6.174
				c6.056,2.936,12.665,162.418,12.665,162.418h-21.825l-43.839-103.166c0,0-33.285-0.382-69.039-3.425
				c-32.11-2.731-28.094-58.409-28.066-62.666H572.166z"/>
			
				<linearGradient id="SVGID_34_" gradientUnits="userSpaceOnUse" x1="802.2295" y1="431.0029" x2="889.9512" y2="431.0029" gradientTransform="matrix(-1 0 0 1 1436.959 0)">
				<stop  offset="0" style="stop-color:#FF7B7B"/>
				<stop  offset="1" style="stop-color:#F95858"/>
			</linearGradient>
			<path fill="url(#SVGID_34_)" d="M548.121,495.927c-0.701-14.146-2.935-93.06,2.008-106.983
				c7.508-21.151,21.028-26.146,48.882-22.371c0.173,0.023,9.386,2.373,9.386,2.373s13.515,4.7,16.663,9.247
				c4.894,7.065,16.38,29.402,4.378,48.127c-1.854,2.905-3.367,9.099-4.354,14.082c-0.848,4.283-1.209,8.659-0.959,13.019
				c1.008,17.607,7.989,43.167,7.989,43.167L548.121,495.927z"/>
			<linearGradient id="SVGID_35_" gradientUnits="userSpaceOnUse" x1="565.416" y1="494.626" x2="600.75" y2="417.949">
				<stop  offset="0.0176" style="stop-color:#F4BD6C"/>
				<stop  offset="1" style="stop-color:#FFD49C"/>
			</linearGradient>
			<path fill="url(#SVGID_35_)" d="M611.739,484.341l-53.687-37.813c0,0,35.813-72.393,7.484-76.38
				c-20.03-2.818-32.597,66.658-30.148,87.293c1.287,10.851,75.05,35.672,75.05,35.672c0.419,0.14,0.857,0.21,1.296,0.21h21.055
				c0,0-3.691-7.098-16.738-7.541C614.51,485.729,613.023,485.188,611.739,484.341z"/>
			<g>
				
					<linearGradient id="SVGID_36_" gradientUnits="userSpaceOnUse" x1="836.0205" y1="374.0693" x2="836.0205" y2="359.0968" gradientTransform="matrix(-1 0 0 1 1436.959 0)">
					<stop  offset="0.0176" style="stop-color:#F4BD6C"/>
					<stop  offset="1" style="stop-color:#FFD49C"/>
				</linearGradient>
				<polygon fill="url(#SVGID_36_)" points="591.535,345.645 591.535,365.765 605.459,378.079 610.342,369.937 610.342,357.653 				
					"/>
				
					<linearGradient id="SVGID_37_" gradientUnits="userSpaceOnUse" x1="814.6924" y1="367.707" x2="828.4266" y2="337.9029" gradientTransform="matrix(-1 0 0 1 1436.959 0)">
					<stop  offset="0.0176" style="stop-color:#F4BD6C"/>
					<stop  offset="1" style="stop-color:#FFD49C"/>
				</linearGradient>
				<path fill="url(#SVGID_37_)" d="M629.849,334.727c0,0,3.407,22.69-13.043,28.183c-12.092,4.035-23.331-5.399-24.947-16.916
					c0,0-3.302,0.314-4.141-4.558c-0.84-4.874,0.997-10.219,6.131-6.027c0,0,16.581-0.929,19.987-5.803
					C613.836,329.604,620.202,334.99,629.849,334.727z"/>
			</g>
			<g>
				<g>
					<linearGradient id="SVGID_38_" gradientUnits="userSpaceOnUse" x1="595.9619" y1="494.5205" x2="651.7214" y2="494.5205">
						<stop  offset="0" style="stop-color:#F4F4F4"/>
						<stop  offset="0.6269" style="stop-color:#F9F9F9"/>
						<stop  offset="1" style="stop-color:#FFFFFF"/>
					</linearGradient>
					<path fill="url(#SVGID_38_)" d="M593.799,490.047h83.245l-0.733,4.622c-0.396,2.492-2.542,4.325-5.064,4.325h-72.861
						c-3.153,0-5.558-2.819-5.064-5.933L593.799,490.047z"/>
					<linearGradient id="SVGID_39_" gradientUnits="userSpaceOnUse" x1="702.4932" y1="496.4326" x2="646.8296" y2="448.2772">
						<stop  offset="0" style="stop-color:#F4F4F4"/>
						<stop  offset="0.6269" style="stop-color:#F9F9F9"/>
						<stop  offset="1" style="stop-color:#FFFFFF"/>
					</linearGradient>
					<path fill="url(#SVGID_39_)" d="M639.504,441.423h72.859c3.154,0,5.56,2.816,5.066,5.93l-7.511,47.316
						c-0.395,2.492-2.542,4.325-5.063,4.325h-72.862c-3.151,0-5.558-2.819-5.063-5.933l7.508-47.315
						C634.833,443.257,636.981,441.423,639.504,441.423z"/>
					<path opacity="0.1" d="M631.989,499.001h-4.782c-3.154,0-5.561-2.821-5.064-5.939l0.472-3.021h4.795l-0.483,3.021
						C626.443,496.18,628.845,499.001,631.989,499.001z"/>
					<path opacity="0.1" d="M684.736,472.19c0.617-5.033-2.963-9.114-7.997-9.114c-5.032,0-9.614,4.081-10.233,9.114
						c-0.618,5.034,2.962,9.115,7.996,9.115C679.539,481.306,684.12,477.225,684.736,472.19z"/>
				</g>
			</g>
		</g>
	</g>
	<g>
		<linearGradient id="SVGID_40_" gradientUnits="userSpaceOnUse" x1="506.188" y1="465.0898" x2="524.4023" y2="465.0898">
			<stop  offset="0.0176" style="stop-color:#F4BD6C"/>
			<stop  offset="1" style="stop-color:#FFD49C"/>
		</linearGradient>
		<path fill="url(#SVGID_40_)" d="M510.464,455.727c0,0-9.894,20.488,0.418,21.881c10.315,1.393,13.381-13.101,13.52-21.322
			C524.541,448.062,510.464,455.727,510.464,455.727z"/>
		<linearGradient id="SVGID_41_" gradientUnits="userSpaceOnUse" x1="457.6045" y1="665.6777" x2="476.6196" y2="665.6777">
			<stop  offset="0.0176" style="stop-color:#F4BD6C"/>
			<stop  offset="1" style="stop-color:#FFD49C"/>
		</linearGradient>
		<path fill="url(#SVGID_41_)" d="M476.62,670.04c-0.832-0.488-2.199-0.548-4.444,0.374c-6.84,2.809-12.459-0.714-14.571-1.592
			l2.38-3.152l-0.505-5.797l16.219,0.387C476.055,663.59,476.428,667.544,476.62,670.04z"/>
		<linearGradient id="SVGID_42_" gradientUnits="userSpaceOnUse" x1="426.4619" y1="678.1484" x2="477.8945" y2="678.1484">
			<stop  offset="0" style="stop-color:#19487F"/>
			<stop  offset="1" style="stop-color:#0E274C"/>
		</linearGradient>
		<path fill="url(#SVGID_42_)" d="M477.809,687.518v-13.602c0,0,1.229-6.326-5.625-3.515c-6.851,2.812-12.475-0.701-14.583-1.579
			c-2.11-0.88-26.358,12.299-30.047,14.583c-0.025,0.016-0.053,0.034-0.08,0.05c-1.863,1.166-0.98,4.063,1.219,4.063H477.809z"/>
		<linearGradient id="SVGID_43_" gradientUnits="userSpaceOnUse" x1="374.1763" y1="665.9668" x2="393.2051" y2="665.9668">
			<stop  offset="0.0176" style="stop-color:#F4BD6C"/>
			<stop  offset="1" style="stop-color:#FFD49C"/>
		</linearGradient>
		<path fill="url(#SVGID_43_)" d="M393.205,670.04c-0.832-0.488-2.2-0.548-4.444,0.374c-6.839,2.809-12.458-0.714-14.584-1.592
			l2.394-3.152l-0.327-3.776l16.041-1.44C392.64,663.752,393.013,667.588,393.205,670.04z"/>
		<linearGradient id="SVGID_44_" gradientUnits="userSpaceOnUse" x1="343.0454" y1="678.1484" x2="394.4771" y2="678.1484">
			<stop  offset="0" style="stop-color:#19487F"/>
			<stop  offset="1" style="stop-color:#0E274C"/>
		</linearGradient>
		<path fill="url(#SVGID_44_)" d="M394.391,687.518v-13.602c0,0,1.23-6.326-5.623-3.515c-6.851,2.812-12.475-0.701-14.583-1.579
			c-2.11-0.88-26.356,12.299-30.048,14.583c-0.025,0.016-0.053,0.034-0.08,0.05c-1.863,1.166-0.978,4.063,1.219,4.063H394.391z"/>
		<linearGradient id="SVGID_45_" gradientUnits="userSpaceOnUse" x1="300.5566" y1="777.2373" x2="462.3531" y2="483.7827">
			<stop  offset="0" style="stop-color:#19487F"/>
			<stop  offset="1" style="stop-color:#0E274C"/>
		</linearGradient>
		<path fill="url(#SVGID_45_)" d="M479.817,663.395l-23.127-0.548l-28.111-186.038c0,0-33.583,45.493-36.841,50.907
			c-3.255,5.432,4.668,134.108,4.668,134.108l-24.012,2.161c0,0-26.147-122.183-27.245-147.099
			c-0.903-20.844,24.188-73.841,32.4-90.581c11.341,5.838,59.366,27.215,110.892,1.098
			C498.598,486.451,479.817,663.395,479.817,663.395z"/>
		<linearGradient id="SVGID_46_" gradientUnits="userSpaceOnUse" x1="475.7178" y1="458.293" x2="398.8054" y2="270.4158">
			<stop  offset="0.0364" style="stop-color:#48CBFF"/>
			<stop  offset="1" style="stop-color:#76FEFF"/>
		</linearGradient>
		<path fill="url(#SVGID_46_)" d="M537.8,361.786c-2.098-5.811-19.024-45.808-31.313-67.519
			c-8.9-15.723-16.965-16.194-16.965-16.194c-15.611-8.085-47.487-11.292-47.487-11.292l-22.86,4.136l-14.896,1.802
			c-1.502,0.095-16.487,0.216-27.053,1.39c-16.694,1.855-43.007-8.073-43.007-8.073l-33.611-80.189c0,0-11.259,4.757-12.331,5.675
			c-1.37,1.174,12.651,96.578,19.767,104.506c7.114,7.926,74.757,26.615,74.757,26.615s0.485,77.373-7.778,102.281
			c0,0,55.335,32.95,114.963,1.688c1.221-0.641-9.108-91.945-9.108-91.945l0.134-0.856c9.861,13.938,28.606,36.976,28.606,36.976
			L508.64,456.7c0,0,16.7,1.996,17.566,0.883C527.231,456.261,541.419,371.804,537.8,361.786z"/>
		<linearGradient id="SVGID_47_" gradientUnits="userSpaceOnUse" x1="387.9741" y1="229.8511" x2="451.6538" y2="229.8511">
			<stop  offset="0" style="stop-color:#19487F"/>
			<stop  offset="1" style="stop-color:#0E274C"/>
		</linearGradient>
		<path fill="url(#SVGID_47_)" d="M439.972,256.309l-1.788-1.013c1.827-2.759,3.077-5.935,3.534-9.27c0,0,3.455,0.338,4.328-4.784
			c0.892-5.102-1.033-10.699-6.413-6.312c0,0-8.952-1.152-12.524-6.252c0,0-11.729,6.589-25.188,5.558c0,0-0.021,0.139-0.041,0.376
			c-0.953-0.396-18.756-8.118-12.624-19.671c4.824-9.11,11.949-4.843,11.949-4.843s15.145-10.858,25.029-4.942
			c0,0,15.483-4.485,21.08,7.027C452.913,223.716,455.453,252.578,439.972,256.309z"/>
		<linearGradient id="SVGID_48_" gradientUnits="userSpaceOnUse" x1="430.4956" y1="277.73" x2="430.4956" y2="260.8382">
			<stop  offset="0.0176" style="stop-color:#F4BD6C"/>
			<stop  offset="1" style="stop-color:#FFD49C"/>
		</linearGradient>
		<polygon fill="url(#SVGID_48_)" points="442.053,245.661 442.053,266.735 425.865,282.254 418.938,271.103 418.938,258.238 		"/>
		<linearGradient id="SVGID_49_" gradientUnits="userSpaceOnUse" x1="409.8677" y1="268.7666" x2="424.2514" y2="237.5529">
			<stop  offset="0.0176" style="stop-color:#F4BD6C"/>
			<stop  offset="1" style="stop-color:#FFD49C"/>
		</linearGradient>
		<path fill="url(#SVGID_49_)" d="M401.926,234.228c0,0-3.569,23.764,13.661,29.515c12.665,4.228,24.436-5.654,26.129-17.715
			c0,0,3.457,0.329,4.334-4.775c0.878-5.104-1.042-10.702-6.421-6.311c0,0-8.945-1.153-12.512-6.257
			C427.118,228.684,415.373,235.27,401.926,234.228z"/>
		<path fill="#FFFFFF" d="M460.537,269.511l-35.072,33.855c0,0-15.289-21.168-21.093-30.653l14.565-1.77v0.159l6.935,11.148
			l16.103-15.465h0.053C442.028,266.786,450.344,267.618,460.537,269.511z"/>
		<g>
			
				<linearGradient id="SVGID_50_" gradientUnits="userSpaceOnUse" x1="320.9526" y1="249.6631" x2="333.3081" y2="249.6631" gradientTransform="matrix(0.4915 0.8709 -0.8709 0.4915 350.7534 -229.6006)">
				<stop  offset="0" style="stop-color:#FCAF00"/>
				<stop  offset="1" style="stop-color:#E58500"/>
			</linearGradient>
			<path fill="url(#SVGID_50_)" d="M312.149,174.536l-6.03-10.403l-29.046,16.837c-0.727,0.421-0.763,1.456-0.07,1.927l8.94,6.084
				c0.364,0.247,0.835,0.263,1.212,0.043L312.149,174.536z"/>
			
				<linearGradient id="SVGID_51_" gradientUnits="userSpaceOnUse" x1="275.6982" y1="226.4072" x2="284.1396" y2="226.4072" gradientTransform="matrix(0.4915 0.8709 -0.8709 0.4915 350.7534 -229.6006)">
				<stop  offset="0" style="stop-color:#FCAF00"/>
				<stop  offset="1" style="stop-color:#E58500"/>
			</linearGradient>
			<path fill="url(#SVGID_51_)" d="M315.979,111.072L315.979,111.072c-1.09-1.88-3.5-2.521-5.378-1.431l-42.835,24.831
				c-1.88,1.089-2.521,3.498-1.431,5.377l0,0c1.09,1.88,3.498,2.522,5.378,1.431l42.833-24.831
				C316.427,115.359,317.067,112.952,315.979,111.072z"/>
			<g>
				<linearGradient id="SVGID_52_" gradientUnits="userSpaceOnUse" x1="272.2861" y1="141.146" x2="322.7544" y2="141.146">
					<stop  offset="0" style="stop-color:#F4F4F4"/>
					<stop  offset="1" style="stop-color:#D3DADD"/>
				</linearGradient>
				<path fill="url(#SVGID_52_)" d="M314.424,116.521l-42.138,24.427c9.684,1.353,26.589,24.824,26.589,24.824l23.879-13.843
					C322.754,151.929,310.787,125.595,314.424,116.521z"/>
				
					<linearGradient id="SVGID_53_" gradientUnits="userSpaceOnUse" x1="318.4995" y1="225.6167" x2="339.9717" y2="225.6167" gradientTransform="matrix(0.4915 0.8709 -0.8709 0.4915 350.7534 -229.6006)">
					<stop  offset="0" style="stop-color:#FCAF00"/>
					<stop  offset="1" style="stop-color:#E58500"/>
				</linearGradient>
				<path fill="url(#SVGID_53_)" d="M327.191,173.905c3.432-1.988,4.602-6.383,2.611-9.815l-7.048-12.161l-23.879,13.843
					l0.036-0.003l7.041,12.146c1.991,3.433,6.385,4.602,9.816,2.612L327.191,173.905z"/>
			</g>
			<path fill="#FCAF00" d="M283.209,117.84c-2.133,2.507-2.7,5.794-1.809,8.725l15.652-9.083c-0.229-0.249-0.471-0.482-0.725-0.699
				C292.417,113.453,286.548,113.912,283.209,117.84z"/>
		</g>
		<linearGradient id="SVGID_54_" gradientUnits="userSpaceOnUse" x1="284.0625" y1="180.0869" x2="299.8232" y2="180.0869">
			<stop  offset="0.0176" style="stop-color:#F4BD6C"/>
			<stop  offset="1" style="stop-color:#FFD49C"/>
		</linearGradient>
		<path fill="url(#SVGID_54_)" d="M299.823,186.238c0,0-3.914-18.885-11.448-17.516c-7.535,1.37-3.621,15.069-0.098,22.8
			L299.823,186.238z"/>
		<path opacity="0.38" fill="#0B2442" d="M383.096,525.1c-6.46,8.674,3.635,110.605,6.147,137.37l7.162-0.647
			c0,0-7.914-128.683-4.664-134.1c3.249-5.416,36.835-50.922,36.835-50.922S404.525,496.331,383.096,525.1z"/>
		<path opacity="0.38" fill="#0B2442" d="M479.817,663.395l-3.098-0.07c10.157-56.588,4.131-195.173-1.426-230.223
			c4.353-1.574,8.742-3.47,13.146-5.698C498.598,486.451,479.817,663.395,479.817,663.395z"/>
		<g>
			<circle fill="#268F91" cx="424.689" cy="314.15" r="3.672"/>
			<circle fill="#268F91" cx="424.689" cy="330.286" r="3.672"/>
		</g>
		<path opacity="0.56" fill="#268F91" d="M470.479,320.625c1.671,6.682,4.782,111.407,4.814,112.452
			c4.852-1.765,9.754-3.876,14.692-6.465c1.221-0.641-9.108-91.945-9.108-91.945S468.801,313.911,470.479,320.625z"/>
	</g>
	<linearGradient id="SVGID_55_" gradientUnits="userSpaceOnUse" x1="298.6445" y1="436.3115" x2="339.7588" y2="354.958">
		<stop  offset="0" style="stop-color:#F4F4F4"/>
		<stop  offset="0.6269" style="stop-color:#F9F9F9"/>
		<stop  offset="1" style="stop-color:#FFFFFF"/>
	</linearGradient>
	<path fill="url(#SVGID_55_)" d="M357.39,372.021h-1.664c-1.434,0-2.695-0.911-3.171-2.263c-0.458-1.292-1.01-2.536-1.658-3.724
		c-0.72-1.324-0.519-2.955,0.546-4.022l1.102-1.102c1.486-1.486,1.486-3.619,0.171-4.933l-2.869-2.869
		c-1.317-1.315-3.448-1.315-4.764,0l-1.577,1.579c-1.029,1.028-2.588,1.258-3.893,0.619c-1.102-0.541-2.248-1.005-3.429-1.384
		c-1.408-0.452-2.38-1.729-2.38-3.208v-1.985c0-2.155-1.509-3.661-3.37-3.661h-4.055c-1.861,0-3.37,1.509-3.37,3.368v2.275
		c0,1.478-0.972,2.759-2.38,3.211c-1.182,0.379-2.328,0.843-3.429,1.384c-1.306,0.64-2.862,0.412-3.892-0.616l-1.378-1.379
		c-1.518-1.518-3.651-1.518-4.965-0.202l-2.869,2.869c-1.314,1.314-1.314,3.447,0,4.763l1.271,1.27
		c1.065,1.066,1.269,2.7,0.546,4.024c-0.645,1.188-1.2,2.432-1.655,3.724c-0.475,1.352-1.737,2.263-3.17,2.263h-1.664
		c-1.861,0-3.367,1.509-3.367,3.367v4.059c0,1.86,1.506,3.367,3.367,3.367h1.068c1.515,0,2.825,1.02,3.235,2.48
		c0.42,1.495,0.971,2.934,1.641,4.305c0.634,1.291,0.389,2.836-0.628,3.855l-0.553,0.552c-1.403,1.403-1.403,3.536-0.089,4.853
		l2.869,2.867c1.314,1.316,3.447,1.316,4.764,0l0.325-0.324c1.061-1.062,2.688-1.278,4.003-0.557
		c1.481,0.814,3.054,1.487,4.696,2.001c1.344,0.418,2.256,1.662,2.256,3.07v0.413c0,1.931,1.508,3.438,3.37,3.438h4.055
		c1.861,0,3.37-1.507,3.37-3.368v-0.387c0-1.465,0.949-2.754,2.345-3.196c1.619-0.512,3.168-1.177,4.632-1.983
		c1.298-0.718,2.907-0.501,3.955,0.548l0.297,0.295c1.364,1.367,3.497,1.367,4.814,0.051l2.869-2.867
		c1.315-1.316,1.315-3.449,0-4.764l-0.64-0.641c-1.017-1.018-1.264-2.564-0.631-3.855c0.67-1.371,1.221-2.81,1.642-4.305
		c0.409-1.461,1.719-2.48,3.235-2.48h1.067c1.859,0,3.368-1.507,3.368-3.367v-4.059C360.757,373.53,359.249,372.021,357.39,372.021z
		 M328.408,387.754c-5.708,0-10.337-4.627-10.337-10.334c0-5.711,4.629-10.338,10.337-10.338c5.708,0,10.337,4.627,10.337,10.338
		C338.745,383.127,334.116,387.754,328.408,387.754z"/>
	<g>
		<g>
			
				<linearGradient id="SVGID_56_" gradientUnits="userSpaceOnUse" x1="259.8657" y1="242.9448" x2="218.0278" y2="182.2991" gradientTransform="matrix(0.9754 -0.2205 0.2205 0.9754 -44.3496 160.2803)">
				<stop  offset="0" style="stop-color:#FCAF00"/>
				<stop  offset="1" style="stop-color:#E58500"/>
			</linearGradient>
			<polygon fill="url(#SVGID_56_)" points="284.855,333.154 200.617,352.196 188.556,298.845 272.796,279.803 			"/>
			
				<linearGradient id="SVGID_57_" gradientUnits="userSpaceOnUse" x1="270.7295" y1="248.8208" x2="217.7601" y2="188.9425" gradientTransform="matrix(0.9754 -0.2205 0.2205 0.9754 -44.3496 160.2803)">
				<stop  offset="0" style="stop-color:#FCAF00"/>
				<stop  offset="1" style="stop-color:#F9DB00"/>
			</linearGradient>
			<polygon fill="url(#SVGID_57_)" points="188.556,298.845 237.337,317.923 272.796,279.803 284.855,333.154 200.617,352.196 			
				"/>
		</g>
		
			<linearGradient id="SVGID_58_" gradientUnits="userSpaceOnUse" x1="283.1323" y1="207.0112" x2="203.7744" y2="127.6533" gradientTransform="matrix(0.9745 -0.2244 0.2244 0.9745 -39.6826 173.3379)">
			<stop  offset="0" style="stop-color:#F4F4F4"/>
			<stop  offset="0.6269" style="stop-color:#F9F9F9"/>
			<stop  offset="1" style="stop-color:#FFFFFF"/>
		</linearGradient>
		<polygon fill="url(#SVGID_58_)" points="259.419,253.55 266.923,286.131 237.337,317.925 200.4,303.484 192.453,268.972 		"/>
		
			<linearGradient id="SVGID_59_" gradientUnits="userSpaceOnUse" x1="260.2261" y1="177.3452" x2="224.0613" y2="141.1805" gradientTransform="matrix(0.9745 -0.2244 0.2244 0.9745 -39.6826 173.3379)">
			<stop  offset="0" style="stop-color:#19487F"/>
			<stop  offset="1" style="stop-color:#0E274C"/>
		</linearGradient>
		<path fill="url(#SVGID_59_)" d="M249.732,266.369l-41.353,9.522c-0.784,0.181-1.272,0.963-1.092,1.748l0,0
			c0.181,0.784,0.962,1.273,1.747,1.092l41.352-9.523c0.784-0.181,1.273-0.962,1.093-1.747l0,0
			C251.298,266.677,250.517,266.188,249.732,266.369z"/>
		
			<linearGradient id="SVGID_60_" gradientUnits="userSpaceOnUse" x1="260.2275" y1="188.3428" x2="224.0617" y2="152.177" gradientTransform="matrix(0.9745 -0.2244 0.2244 0.9745 -39.6826 173.3379)">
			<stop  offset="0" style="stop-color:#19487F"/>
			<stop  offset="1" style="stop-color:#0E274C"/>
		</linearGradient>
		<path fill="url(#SVGID_60_)" d="M252.2,277.084l-41.352,9.524c-0.784,0.179-1.273,0.962-1.093,1.746l0,0
			c0.181,0.784,0.962,1.273,1.747,1.093l41.352-9.523c0.784-0.181,1.273-0.962,1.093-1.747l0,0
			C253.766,277.394,252.984,276.904,252.2,277.084z"/>
		
			<linearGradient id="SVGID_61_" gradientUnits="userSpaceOnUse" x1="250.9097" y1="193.6655" x2="227.8288" y2="170.5846" gradientTransform="matrix(0.9745 -0.2244 0.2244 0.9745 -39.6826 173.3379)">
			<stop  offset="0" style="stop-color:#19487F"/>
			<stop  offset="1" style="stop-color:#0E274C"/>
		</linearGradient>
		<path fill="url(#SVGID_61_)" d="M244.906,291.757l-24.938,5.743c-0.785,0.181-1.273,0.963-1.094,1.747l0,0
			c0.18,0.784,0.963,1.273,1.747,1.093l24.938-5.742c0.784-0.181,1.273-0.963,1.092-1.748l0,0
			C246.472,292.065,245.69,291.577,244.906,291.757z"/>
	</g>
</g>
</svg>
